<svg width="58" height="59" viewBox="0 0 58 59" fill="none" xmlns="http://www.w3.org/2000/svg">
<path d="M18.85 5.57144H39.15C46.8833 5.57144 53.1667 11.8548 53.1667 19.5881V39.8881C53.1667 43.6056 51.6899 47.1708 49.0613 49.7994C46.4326 52.428 42.8674 53.9048 39.15 53.9048H18.85C11.1167 53.9048 4.83333 47.6214 4.83333 39.8881V19.5881C4.83333 15.8707 6.31008 12.3055 8.93871 9.67683C11.5673 7.04819 15.1325 5.57144 18.85 5.57144ZM18.3667 10.4048C16.0593 10.4048 13.8464 11.3214 12.2148 12.9529C10.5833 14.5845 9.66666 16.7974 9.66666 19.1048V40.3714C9.66666 45.1806 13.5575 49.0714 18.3667 49.0714H39.6333C41.9407 49.0714 44.1536 48.1548 45.7852 46.5233C47.4167 44.8917 48.3333 42.6788 48.3333 40.3714V19.1048C48.3333 14.2956 44.4425 10.4048 39.6333 10.4048H18.3667ZM41.6875 14.0298C42.4887 14.0298 43.257 14.348 43.8235 14.9146C44.3901 15.4811 44.7083 16.2494 44.7083 17.0506C44.7083 17.8518 44.3901 18.6201 43.8235 19.1867C43.257 19.7532 42.4887 20.0714 41.6875 20.0714C40.8863 20.0714 40.118 19.7532 39.5514 19.1867C38.9849 18.6201 38.6667 17.8518 38.6667 17.0506C38.6667 16.2494 38.9849 15.4811 39.5514 14.9146C40.118 14.348 40.8863 14.0298 41.6875 14.0298ZM29 17.6548C32.2047 17.6548 35.2781 18.9278 37.5442 21.1939C39.8103 23.46 41.0833 26.5334 41.0833 29.7381C41.0833 32.9428 39.8103 36.0162 37.5442 38.2823C35.2781 40.5484 32.2047 41.8214 29 41.8214C25.7953 41.8214 22.7219 40.5484 20.4558 38.2823C18.1897 36.0162 16.9167 32.9428 16.9167 29.7381C16.9167 26.5334 18.1897 23.46 20.4558 21.1939C22.7219 18.9278 25.7953 17.6548 29 17.6548ZM29 22.4881C27.0772 22.4881 25.2331 23.2519 23.8735 24.6116C22.5138 25.9712 21.75 27.8153 21.75 29.7381C21.75 31.6609 22.5138 33.505 23.8735 34.8646C25.2331 36.2243 27.0772 36.9881 29 36.9881C30.9228 36.9881 32.7669 36.2243 34.1265 34.8646C35.4862 33.505 36.25 31.6609 36.25 29.7381C36.25 27.8153 35.4862 25.9712 34.1265 24.6116C32.7669 23.2519 30.9228 22.4881 29 22.4881Z" fill="#A6A6A6"/>
</svg>
