<svg width="58" height="59" viewBox="0 0 58 59" fill="none" xmlns="http://www.w3.org/2000/svg">
<path d="M54.2783 15.2376C52.4175 16.0835 50.4117 16.6393 48.3333 16.9051C50.46 15.6243 52.1033 13.5943 52.8767 11.1535C50.8708 12.3618 48.6475 13.2076 46.3033 13.691C44.3942 11.6126 41.7117 10.4043 38.6667 10.4043C32.9875 10.4043 28.3475 15.0443 28.3475 20.7718C28.3475 21.5935 28.4442 22.391 28.6133 23.1401C20.01 22.7051 12.3492 18.5726 7.25 12.3135C6.35583 13.836 5.84833 15.6243 5.84833 17.5093C5.84833 21.1101 7.66083 24.3001 10.4642 26.1126C8.74833 26.1126 7.15333 25.6293 5.75166 24.9043V24.9768C5.75166 30.0035 9.32833 34.2085 14.065 35.151C12.5445 35.5689 10.9476 35.6268 9.40083 35.3201C10.0572 37.3803 11.3427 39.1829 13.0766 40.4747C14.8105 41.7665 16.9057 42.4824 19.0675 42.5218C15.403 45.423 10.8605 46.9912 6.18666 46.9685C5.365 46.9685 4.54333 46.9201 3.72166 46.8235C8.31333 49.7718 13.775 51.4876 19.6233 51.4876C38.6667 51.4876 49.1308 35.6826 49.1308 21.9801C49.1308 21.521 49.1308 21.086 49.1067 20.6268C51.1367 19.1768 52.8767 17.3401 54.2783 15.2376Z" fill="#A6A6A6"/>
</svg>
