<svg width="58" height="59" viewBox="0 0 58 59" fill="none" xmlns="http://www.w3.org/2000/svg">
<path d="M24.1667 36.988L36.7092 29.738L24.1667 22.488V36.988ZM52.1033 18.0655C52.4175 19.2013 52.635 20.7238 52.78 22.6571C52.9492 24.5905 53.0217 26.258 53.0217 27.708L53.1667 29.738C53.1667 35.0305 52.78 38.9213 52.1033 41.4105C51.4992 43.5855 50.0975 44.9871 47.9225 45.5913C46.7867 45.9055 44.7083 46.123 41.5183 46.268C38.3767 46.4371 35.5008 46.5096 32.8425 46.5096L29 46.6546C18.8742 46.6546 12.5667 46.268 10.0775 45.5913C7.90251 44.9871 6.50084 43.5855 5.89668 41.4105C5.58251 40.2746 5.36501 38.7521 5.22001 36.8188C5.05084 34.8855 4.97834 33.218 4.97834 31.768L4.83334 29.738C4.83334 24.4455 5.22001 20.5546 5.89668 18.0655C6.50084 15.8905 7.90251 14.4888 10.0775 13.8846C11.2133 13.5705 13.2917 13.353 16.4817 13.208C19.6233 13.0388 22.4992 12.9663 25.1575 12.9663L29 12.8213C39.1258 12.8213 45.4333 13.208 47.9225 13.8846C50.0975 14.4888 51.4992 15.8905 52.1033 18.0655Z" fill="#A6A6A6"/>
</svg>
